

Release info:

General
Format                                   : Matroska
Format version                           : Version 2
File size                                : 693 MiB
Duration                                 : 1h 26mn
Overall bit rate mode                    : Variable
Overall bit rate                         : 1 121 Kbps

Video
ID                                       : 1
Format                                   : MPEG-4 Visual
Format profile                           : Advanced Simple@L5
Format settings, BVOP                    : Yes
Format settings, QPel                    : No
Format settings, GMC                     : No warppoints
Format settings, Matrix                  : Default (H.263)
Codec ID                                 : V_MS/VFW/FOURCC / XVID
Codec ID/Hint                            : XviD
Duration                                 : 1h 26mn
Bit rate                                 : 971 Kbps
Width                                    : 624 pixels
Height                                   : 352 pixels
Display aspect ratio                     : 16:9
Frame rate mode                          : Constant
Frame rate                               : 25.000 fps
Color space                              : YUV
Chroma subsampling                       : 4:2:0
Bit depth                                : 8 bits
Scan type                                : Progressive
Compression mode                         : Lossy
Bits/(Pixel*Frame)                       : 0.177
Stream size                              : 601 MiB (87%)
Language                                 : English
Default                                  : Yes
Forced                                   : No

Audio
ID                                       : 2
Format                                   : MPEG Audio
Format version                           : Version 1
Format profile                           : Layer 3
Mode                                     : Joint stereo
Mode extension                           : MS Stereo
Muxing mode                              : Header stripping
Codec ID                                 : A_MPEG/L3
Codec ID/Hint                            : MP3
Duration                                 : 1h 26mn
Bit rate mode                            : Variable
Bit rate                                 : 127 Kbps
Nominal bit rate                         : 142 Kbps
Channel(s)                               : 2 channels
Sampling rate                            : 48.0 KHz
Compression mode                         : Lossy
Stream size                              : 78.6 MiB (11%)
Language                                 : English
Default                                  : Yes
Forced                                   : No


Source:
credit to original movie ripper DOSE (Thanks)

IMDB Info:

A Jeep crash sends a vacationing couple on a creepy trip back to safety.

Director: Jason Bourque
Writer: Joseph Nasser
Stars: Charisma Carpenter, Sebastian Spence and Katie Findlay

Genres: Drama | Horror | Thriller
 
http://www.imdb.com/title/tt1718755/

Screen Shot:
 
http://www.shotpix.com/images/44215000665924577751.png 
http://www.shotpix.com/images/14864485574795501269.png 
http://www.shotpix.com/images/08877140884799364936.png 
http://www.shotpix.com/images/02330240253386870651.png 
http://www.shotpix.com/images/58425111709979215174.png 
http://www.shotpix.com/images/54264325088660140176.png